<?xml version="1.0" encoding="utf-8"?>
<!-- Generator: Adobe Illustrator 21.1.0, SVG Export Plug-In . SVG Version: 6.00 Build 0)  -->
<svg version="1.1" id="Layer_1" xmlns="http://www.w3.org/2000/svg" xmlns:xlink="http://www.w3.org/1999/xlink" x="0px" y="0px"
	 viewBox="0 0 600 168" enable-background="new 0 0 600 168" xml:space="preserve">
<g>
	<g>
		<polygon stroke="#FFFFFF" stroke-width="1.6975" stroke-miterlimit="10" points="108.1,106.5 108.1,106.5 108.1,106.5 		"/>
		<polygon fill="#218939" points="108.1,64.7 108.1,106.5 144.4,85.6 144.4,85.6 144.4,43.7 		"/>
		<polygon stroke="#FFFFFF" stroke-width="1.6975" stroke-miterlimit="10" points="71.8,127.5 71.8,127.5 71.8,127.5 		"/>
		<polygon stroke="#FFFFFF" stroke-width="1.6975" stroke-miterlimit="10" points="35.6,106.5 35.6,106.5 35.6,106.5 		"/>
		<polygon stroke="#FFFFFF" stroke-width="1.6975" stroke-miterlimit="10" points="144.4,43.7 144.4,43.7 144.4,43.7 		"/>
		<polygon stroke="#FFFFFF" stroke-width="1.6975" stroke-miterlimit="10" points="35.6,22.8 35.6,22.8 35.6,22.8 		"/>
		<polygon stroke="#FFFFFF" stroke-width="1.6975" stroke-miterlimit="10" points="108.1,22.8 108.1,22.8 108.1,22.8 		"/>
		<polygon fill="#7AAEF9" points="71.8,85.6 35.6,106.5 71.8,127.5 108.1,106.5 		"/>
		<polygon stroke="#FFFFFF" stroke-width="1.6975" stroke-miterlimit="10" points="144.4,85.6 144.4,85.6 144.4,85.6 		"/>
		<polygon fill="#35A753" points="71.8,43.7 71.8,85.6 108.1,106.5 108.1,64.7 		"/>
		<polygon fill="#69BC7D" points="108.1,22.8 71.8,43.7 108.1,64.7 144.4,43.7 		"/>
		<polygon stroke="#FFFFFF" stroke-width="1.6975" stroke-miterlimit="10" points="71.8,43.7 71.8,43.7 71.8,43.7 		"/>
		<polygon fill="#F4645D" points="71.8,1.9 35.6,22.8 71.8,43.7 108.1,22.8 		"/>
		<polygon fill="#FCCF5E" points="35.6,22.8 35.6,22.8 -0.7,43.7 35.6,64.7 71.8,43.7 		"/>
		<polygon stroke="#FFFFFF" stroke-width="1.6975" stroke-miterlimit="10" points="108.1,64.7 108.1,64.7 108.1,64.7 		"/>
		<polygon fill="#E0A205" points="35.6,64.7 35.6,106.5 35.6,106.5 71.8,85.6 71.8,43.7 		"/>
		<polygon fill="#FCBB05" points="-0.7,43.7 -0.7,85.6 35.6,106.5 35.6,64.7 		"/>
		<polygon stroke="#FFFFFF" stroke-width="1.6975" stroke-miterlimit="10" points="35.6,64.7 35.6,64.7 35.6,64.7 		"/>
		<polygon stroke="#FFFFFF" stroke-width="1.6975" stroke-miterlimit="10" points="71.8,169.3 71.8,169.3 71.8,169.3 		"/>
		<polygon fill="#4285F4" points="35.6,106.5 35.6,106.5 35.6,148.4 35.6,148.4 71.8,169.3 71.8,127.5 		"/>
		<polygon fill="#296ED3" points="71.8,127.5 71.8,169.3 108.1,148.4 108.1,106.5 		"/>
		<polygon stroke="#FFFFFF" stroke-width="1.6975" stroke-miterlimit="10" points="35.6,148.4 35.6,148.4 35.6,148.4 		"/>
		<polygon fill="#EB4336" points="-0.7,85.6 -0.7,127.5 35.6,148.4 35.6,106.5 		"/>
		<polygon stroke="#FFFFFF" stroke-width="1.6975" stroke-miterlimit="10" points="108.1,148.4 108.1,148.4 108.1,148.4 		"/>
		<polygon fill="#E0A205" points="144.4,85.6 108.1,106.5 108.1,148.4 144.4,127.5 144.4,85.6 		"/>
		<polygon stroke="#FFFFFF" stroke-width="1.6975" stroke-miterlimit="10" points="144.4,127.5 144.4,127.5 144.4,127.5 		"/>
	</g>
	<g>
		<g>
			<path d="M206.8,56.4c7.3,0,12.9,1.7,16.7,5.1c3.8,3.4,5.7,8.1,5.7,14.1c0,4.3-1,7.9-2.9,10.9c-2,3-4.8,5.3-8.6,6.7l12.1,21.7
				c0.2,0.4,0.3,0.7,0.3,1c0,0.5-0.2,1-0.6,1.4c-0.4,0.4-0.8,0.6-1.4,0.6h-7.5c-1.2,0-2-0.3-2.6-0.8c-0.6-0.6-1-1.1-1.2-1.5
				L205.3,95h-11.7v20.4c0,0.6-0.2,1.2-0.7,1.7c-0.5,0.5-1,0.7-1.7,0.7h-7.1c-0.6,0-1.2-0.2-1.7-0.7c-0.5-0.5-0.7-1-0.7-1.7V58.8
				c0-0.6,0.2-1.2,0.7-1.7c0.5-0.5,1-0.7,1.7-0.7H206.8z M193.7,84h12.7c3.3,0,6-0.6,8-1.8c2-1.2,3-3.4,3-6.7c0-3.3-1-5.5-3-6.6
				c-2-1.1-4.6-1.7-8-1.7h-12.7V84z"/>
			<path d="M239.4,74.6c0-0.6,0.2-1.2,0.7-1.7c0.5-0.5,1-0.7,1.7-0.7h6.7c0.6,0,1.2,0.2,1.7,0.7c0.5,0.5,0.7,1,0.7,1.7v22.3
				c0,3.5,0.7,6.3,2.2,8.4c1.5,2.1,3.9,3.2,7.3,3.2c3.1,0,5.5-1.1,7.1-3.2c1.6-2.1,2.5-4.9,2.5-8.4V74.6c0-0.6,0.2-1.2,0.7-1.7
				c0.5-0.5,1-0.7,1.7-0.7h6.7c0.6,0,1.2,0.2,1.7,0.7c0.5,0.5,0.7,1,0.7,1.7v40.9c0,0.6-0.2,1.2-0.7,1.7c-0.5,0.5-1,0.7-1.7,0.7
				h-6.7c-0.6,0-1.2-0.2-1.7-0.7c-0.5-0.5-0.7-1-0.7-1.7v-2c-1.3,1.3-3,2.6-5,3.6c-2,1.1-4.4,1.6-7.2,1.6c-3.6,0-6.5-0.6-8.9-1.7
				c-2.3-1.1-4.2-2.6-5.6-4.5c-1.4-1.9-2.4-4-3-6.5c-0.6-2.5-0.9-5.1-0.9-7.9V74.6z"/>
			<path d="M318.1,71.3c2.9,0,5.6,0.6,7.9,1.7c2.4,1.1,4.4,2.7,6.1,4.6c1.7,1.9,3,4.1,3.9,6.6c1,2.5,1.5,5.1,1.6,7.8
				c0.1,0.9,0.1,1.9,0.1,3.1s0,2.2-0.1,3.1c-0.1,2.7-0.7,5.3-1.6,7.8c-1,2.5-2.3,4.7-3.9,6.6c-1.7,1.9-3.7,3.4-6.1,4.6
				c-2.4,1.1-5,1.7-7.9,1.7c-1.8,0-3.4-0.2-4.9-0.5c-1.4-0.4-2.7-0.8-3.8-1.3c-1.1-0.5-2-1.1-2.8-1.7c-0.8-0.6-1.4-1.2-1.8-1.7v2
				c0,0.6-0.2,1.2-0.7,1.7c-0.5,0.5-1,0.7-1.7,0.7h-6.7c-0.6,0-1.2-0.2-1.7-0.7c-0.5-0.5-0.7-1-0.7-1.7V57.9c0-0.6,0.2-1.2,0.7-1.7
				c0.5-0.5,1-0.7,1.7-0.7h6.7c0.6,0,1.2,0.2,1.7,0.7c0.5,0.5,0.7,1,0.7,1.7v18.7c0.5-0.5,1.1-1.1,1.8-1.7c0.8-0.6,1.7-1.2,2.8-1.7
				c1.1-0.5,2.3-1,3.8-1.3C314.6,71.5,316.3,71.3,318.1,71.3z M326.2,92.5c-0.4-3.8-1.5-6.5-3.5-8.2c-2-1.7-4.4-2.5-7.3-2.5
				c-2.9,0-5.3,0.9-7.2,2.6c-2,1.8-3.1,4.2-3.4,7.2c-0.1,0.9-0.2,2-0.2,3.3c0,1.3,0.1,2.5,0.2,3.3c0.3,3.2,1.4,5.6,3.4,7.3
				c2,1.7,4.4,2.5,7.2,2.5c2.9,0,5.3-0.8,7.3-2.5c2-1.7,3.2-4.4,3.5-8.2C326.4,95.8,326.4,94.2,326.2,92.5z"/>
			<path d="M359.7,115.4l-17.4-40.2c-0.1-0.2-0.1-0.4-0.1-0.6c0-0.6,0.2-1.2,0.7-1.7c0.5-0.5,1-0.7,1.7-0.7h6.6
				c0.7,0,1.3,0.2,1.8,0.7s0.9,0.9,1.1,1.4l11.7,27.1l11.7-27.1c0.2-0.5,0.5-0.9,1.1-1.4s1.1-0.7,1.8-0.7h6.6c0.6,0,1.2,0.2,1.7,0.7
				c0.5,0.5,0.7,1,0.7,1.7c0,0.2,0,0.4-0.1,0.6l-24.7,57.2c-0.2,0.5-0.5,0.9-1.1,1.4s-1.1,0.7-1.8,0.7H355c-0.6,0-1.2-0.2-1.7-0.7
				c-0.5-0.5-0.7-1-0.7-1.7c0-0.2,0-0.4,0.1-0.6L359.7,115.4z"/>
			<path d="M444.8,114.1c0.3,0.3,0.5,0.6,0.5,0.8c0.1,0.2,0.1,0.4,0.1,0.5c0,0.6-0.2,1.2-0.7,1.7c-0.5,0.5-1,0.7-1.7,0.7h-8.3
				c-1.2,0-2.1-0.3-2.8-0.9c-0.7-0.6-1.1-1-1.2-1.1l-20.6-23.2v22.9c0,0.6-0.2,1.2-0.7,1.7c-0.5,0.5-1,0.7-1.7,0.7h-7.1
				c-0.6,0-1.2-0.2-1.7-0.7c-0.5-0.5-0.7-1-0.7-1.7V58.8c0-0.6,0.2-1.2,0.7-1.7c0.5-0.5,1-0.7,1.7-0.7h7.1c0.6,0,1.2,0.2,1.7,0.7
				c0.5,0.5,0.7,1,0.7,1.7v20.6l19.1-21.1c0.5-0.6,1.1-1.1,1.7-1.4c0.6-0.4,1.3-0.5,2.3-0.5h8.1c0.6,0,1.2,0.2,1.7,0.7
				c0.5,0.5,0.7,1,0.7,1.7c0,0.5-0.2,0.9-0.5,1.3l-23.6,25.7L444.8,114.1z"/>
			<path d="M450.2,74.6c0-0.6,0.2-1.2,0.7-1.7c0.5-0.5,1-0.7,1.7-0.7h6.7c0.6,0,1.2,0.2,1.7,0.7c0.5,0.5,0.7,1,0.7,1.7v22.3
				c0,3.5,0.7,6.3,2.2,8.4c1.5,2.1,3.9,3.2,7.3,3.2c3.1,0,5.5-1.1,7.1-3.2c1.6-2.1,2.5-4.9,2.5-8.4V74.6c0-0.6,0.2-1.2,0.7-1.7
				c0.5-0.5,1-0.7,1.7-0.7h6.7c0.6,0,1.2,0.2,1.7,0.7c0.5,0.5,0.7,1,0.7,1.7v40.9c0,0.6-0.2,1.2-0.7,1.7c-0.5,0.5-1,0.7-1.7,0.7
				h-6.7c-0.6,0-1.2-0.2-1.7-0.7c-0.5-0.5-0.7-1-0.7-1.7v-2c-1.3,1.3-3,2.6-5,3.6c-2,1.1-4.4,1.6-7.2,1.6c-3.6,0-6.5-0.6-8.9-1.7
				c-2.3-1.1-4.2-2.6-5.6-4.5c-1.4-1.9-2.4-4-3-6.5c-0.6-2.5-0.9-5.1-0.9-7.9V74.6z"/>
			<path d="M528.9,71.3c2.9,0,5.6,0.6,7.9,1.7c2.4,1.1,4.4,2.7,6.1,4.6c1.7,1.9,3,4.1,3.9,6.6c1,2.5,1.5,5.1,1.6,7.8
				c0.1,0.9,0.1,1.9,0.1,3.1s0,2.2-0.1,3.1c-0.1,2.7-0.7,5.3-1.6,7.8c-1,2.5-2.3,4.7-3.9,6.6c-1.7,1.9-3.7,3.4-6.1,4.6
				c-2.4,1.1-5,1.7-7.9,1.7c-1.8,0-3.4-0.2-4.9-0.5c-1.4-0.4-2.7-0.8-3.8-1.3c-1.1-0.5-2-1.1-2.8-1.7c-0.8-0.6-1.4-1.2-1.8-1.7v2
				c0,0.6-0.2,1.2-0.7,1.7c-0.5,0.5-1,0.7-1.7,0.7h-6.7c-0.6,0-1.2-0.2-1.7-0.7c-0.5-0.5-0.7-1-0.7-1.7V57.9c0-0.6,0.2-1.2,0.7-1.7
				c0.5-0.5,1-0.7,1.7-0.7h6.7c0.6,0,1.2,0.2,1.7,0.7c0.5,0.5,0.7,1,0.7,1.7v18.7c0.5-0.5,1.1-1.1,1.8-1.7c0.8-0.6,1.7-1.2,2.8-1.7
				c1.1-0.5,2.3-1,3.8-1.3C525.4,71.5,527.1,71.3,528.9,71.3z M537,92.5c-0.4-3.8-1.5-6.5-3.5-8.2c-2-1.7-4.4-2.5-7.3-2.5
				c-2.9,0-5.3,0.9-7.2,2.6c-2,1.8-3.1,4.2-3.4,7.2c-0.1,0.9-0.2,2-0.2,3.3c0,1.3,0.1,2.5,0.2,3.3c0.3,3.2,1.4,5.6,3.4,7.3
				c2,1.7,4.4,2.5,7.2,2.5c2.9,0,5.3-0.8,7.3-2.5c2-1.7,3.2-4.4,3.5-8.2C537.2,95.8,537.2,94.2,537,92.5z"/>
			<path d="M556.2,95c0-3.3,0.5-6.4,1.5-9.3c1-2.9,2.4-5.4,4.3-7.5c1.9-2.1,4.1-3.8,6.8-5c2.7-1.2,5.6-1.8,8.9-1.8
				c3.3,0,6.2,0.6,8.9,1.8c2.7,1.2,4.9,2.8,6.8,4.8c1.9,2,3.3,4.4,4.3,7.1c1,2.7,1.5,5.6,1.5,8.6v3.9c0,0.6-0.2,1.2-0.7,1.7
				c-0.5,0.5-1,0.7-1.7,0.7h-29.3c0,1.3,0.3,2.5,0.8,3.6c0.6,1,1.3,1.9,2.2,2.6c0.9,0.7,2,1.2,3.2,1.6c1.2,0.4,2.5,0.5,3.8,0.5
				c1.9,0,3.4-0.2,4.6-0.6c1.2-0.4,2.1-0.9,2.9-1.4c0.6-0.5,1.2-0.8,1.6-1c0.4-0.2,1-0.3,1.7-0.3h7c0.6,0,1.2,0.2,1.7,0.7
				c0.5,0.5,0.7,1,0.7,1.7c-0.1,0.8-0.5,1.9-1.4,3.2c-0.8,1.3-2.1,2.5-3.8,3.8c-1.7,1.2-3.8,2.3-6.3,3.2c-2.5,0.9-5.4,1.3-8.6,1.3
				c-3.3,0-6.2-0.6-8.9-1.7c-2.7-1.1-4.9-2.8-6.8-4.9c-1.9-2.1-3.3-4.6-4.3-7.5C556.7,101.7,556.2,98.5,556.2,95z M577.7,81.8
				c-1.7,0-3.1,0.3-4.3,0.7c-1.2,0.5-2.2,1.1-3,1.9c-0.8,0.8-1.4,1.7-1.9,2.6c-0.4,1-0.7,1.9-0.8,2.8h19.8c-0.1-0.9-0.3-1.8-0.7-2.8
				c-0.3-1-0.8-1.8-1.6-2.6c-0.7-0.8-1.7-1.4-2.9-1.9C581.1,82.1,579.6,81.8,577.7,81.8z"/>
		</g>
	</g>
</g>
</svg>
