<?xml version="1.0" encoding="utf-8"?>
<!-- Generator: Adobe Illustrator 21.1.0, SVG Export Plug-In . SVG Version: 6.00 Build 0)  -->
<svg version="1.1" id="Layer_1" xmlns="http://www.w3.org/2000/svg" xmlns:xlink="http://www.w3.org/1999/xlink" x="0px" y="0px"
	 viewBox="0 0 150 170" enable-background="new 0 0 150 170" xml:space="preserve">
<g>
	<polygon stroke="#FFFFFF" stroke-width="1.6975" stroke-miterlimit="10" points="111.1,105.5 111.1,105.5 111.1,105.5 	"/>
	<polygon fill="#218939" points="111.1,63.7 111.1,105.5 147.4,84.6 147.4,84.6 147.4,42.7 	"/>
	<polygon stroke="#FFFFFF" stroke-width="1.6975" stroke-miterlimit="10" points="74.8,126.5 74.8,126.5 74.8,126.5 	"/>
	<polygon stroke="#FFFFFF" stroke-width="1.6975" stroke-miterlimit="10" points="38.6,105.5 38.6,105.5 38.6,105.5 	"/>
	<polygon stroke="#FFFFFF" stroke-width="1.6975" stroke-miterlimit="10" points="147.4,42.7 147.4,42.7 147.4,42.7 	"/>
	<polygon stroke="#FFFFFF" stroke-width="1.6975" stroke-miterlimit="10" points="38.6,21.8 38.6,21.8 38.6,21.8 	"/>
	<polygon stroke="#FFFFFF" stroke-width="1.6975" stroke-miterlimit="10" points="111.1,21.8 111.1,21.8 111.1,21.8 	"/>
	<polygon fill="#7AAEF9" points="74.8,84.6 38.6,105.5 74.8,126.5 111.1,105.5 	"/>
	<polygon stroke="#FFFFFF" stroke-width="1.6975" stroke-miterlimit="10" points="147.4,84.6 147.4,84.6 147.4,84.6 	"/>
	<polygon fill="#35A753" points="74.8,42.7 74.8,84.6 111.1,105.5 111.1,63.7 	"/>
	<polygon fill="#69BC7D" points="111.1,21.8 74.8,42.7 111.1,63.7 147.4,42.7 	"/>
	<polygon stroke="#FFFFFF" stroke-width="1.6975" stroke-miterlimit="10" points="74.8,42.7 74.8,42.7 74.8,42.7 	"/>
	<polygon fill="#F4645D" points="74.8,0.9 38.6,21.8 74.8,42.7 111.1,21.8 	"/>
	<polygon fill="#FCCF5E" points="38.6,21.8 38.6,21.8 2.3,42.7 38.6,63.7 74.8,42.7 	"/>
	<polygon stroke="#FFFFFF" stroke-width="1.6975" stroke-miterlimit="10" points="111.1,63.7 111.1,63.7 111.1,63.7 	"/>
	<polygon fill="#E0A205" points="38.6,63.7 38.6,105.5 38.6,105.5 74.8,84.6 74.8,42.7 	"/>
	<polygon fill="#FCBB05" points="2.3,42.7 2.3,84.6 38.6,105.5 38.6,63.7 	"/>
	<polygon stroke="#FFFFFF" stroke-width="1.6975" stroke-miterlimit="10" points="38.6,63.7 38.6,63.7 38.6,63.7 	"/>
	<polygon stroke="#FFFFFF" stroke-width="1.6975" stroke-miterlimit="10" points="74.8,168.3 74.8,168.3 74.8,168.3 	"/>
	<polygon fill="#4285F4" points="38.6,105.5 38.6,105.5 38.6,147.4 38.6,147.4 74.8,168.3 74.8,126.5 	"/>
	<polygon fill="#296ED3" points="74.8,126.5 74.8,168.3 111.1,147.4 111.1,105.5 	"/>
	<polygon stroke="#FFFFFF" stroke-width="1.6975" stroke-miterlimit="10" points="38.6,147.4 38.6,147.4 38.6,147.4 	"/>
	<polygon fill="#EB4336" points="2.3,84.6 2.3,126.5 38.6,147.4 38.6,105.5 	"/>
	<polygon stroke="#FFFFFF" stroke-width="1.6975" stroke-miterlimit="10" points="111.1,147.4 111.1,147.4 111.1,147.4 	"/>
	<polygon fill="#E0A205" points="147.4,84.6 111.1,105.5 111.1,147.4 147.4,126.5 147.4,84.6 	"/>
	<polygon stroke="#FFFFFF" stroke-width="1.6975" stroke-miterlimit="10" points="147.4,126.5 147.4,126.5 147.4,126.5 	"/>
</g>
</svg>
